<svg width="153" height="77" fill="none" xmlns="http://www.w3.org/2000/svg"><path d="M144.165 29.25c7.139 2.263 8.233 4.187 8.056 6.63-.398 5.497-8.718 7.155-18.679 7.551-2.665.106-5.551.221-8.62.474-12.681 1.043-13.04 2.996-14.757 12.334-.252 1.366-.532 2.892-.885 4.595-1.891 9.14-9.192 13.584-14.086 15.175-.831.27-1.497-.661-1.167-1.47 2.067-5.075 1.422-12.45-5.546-16.243-11.075-2.814-31.303 1.228-53.042 8.68-4.695 1.609-6.683 2.521-10.447 2.521-12.623 0-22.856-10.233-22.856-22.856 0-7.102 2.73-12.405 7.266-16.593 1.264-1.167 2.605-2.271 3.617-3.663 2.658-3.656 4.152-8.327 1.609-13.79-3.18-6.833-9.55-8.457-12.544-9.221-1.984-.506-2.486-.635.402-1.65C9.732-.82 27.259-.625 36.268 6.426c6.57 5.141 14.228 2.693 18.357 1.374.4-.128.768-.246 1.098-.345 34.889-10.45 55.791-4.764 68.054 1.626 8.45 3.598 11.042 8.57 13.225 12.758 1.735 3.327 3.211 6.159 7.163 7.412Z" fill="#008EC2"/><circle cx="129.973" cy="26.095" r="2.131" transform="rotate(10.672 129.973 26.095)" fill="#144F91"/></svg>