<svg xmlns="http://www.w3.org/2000/svg" width="36" height="36"><path fill="#3FCBFF" fill-rule="evenodd" d="M18 4.5C10.544 4.5 4.5 10.544 4.5 18S10.544 31.5 18 31.5 31.5 25.456 31.5 18C31.49 10.548 25.452 4.51 18 4.5zm9.872 19.286a13.943 13.943 0 0 0-3.061-1.577c.114-1.287.236-2.734.236-4.208a26.53 26.53 0 0 0-.355-4.33c1.29-.31 2.39-.893 3.392-1.606-.005-.005.03-.042.06-.082a11.548 11.548 0 0 1 1.671 6.02c0 2.244-.632 4.34-1.726 6.12a.51.51 0 0 0-.214-.335l-.003-.002zM18 29.812c-1.863 0-3.815-2.47-4.765-6.488a18.276 18.276 0 0 1 4.767-.618c1.695 0 3.337.226 4.898.648-1.084 3.99-3.037 6.459-4.9 6.459zm0-8.791h-.01c-1.805 0-3.556.238-5.22.684-.03-1.137-.127-2.41-.127-3.708 0-1.296.097-2.57.285-3.815 1.51.554 3.263.792 5.072.792a20.22 20.22 0 0 0 5.23-.684c.03 1.137.128 2.41.128 3.707 0 1.296-.098 2.57-.286 3.814-1.504-.552-3.251-.788-5.053-.788H18l.001-.002zm0-14.834c1.863 0 3.815 2.472 4.765 6.489-1.43.392-3.072.618-4.767.618-1.695 0-3.337-.226-4.898-.648 1.085-3.99 3.037-6.459 4.9-6.459zm9.23 4.461a.755.755 0 0 0-.172.08 11.956 11.956 0 0 1-2.61 1.397c-.53-1.962-1.325-3.714-2.409-5.249 2.114.827 3.857 2.108 5.173 3.746l.019.026zM13.934 6.924a14.44 14.44 0 0 0-2.277 5.133c-1.041-.294-1.924-.77-2.734-1.342-.018-.008-.082-.037-.15-.057a11.846 11.846 0 0 1 5.078-3.71l.083-.024zm-6.075 5.052a.795.795 0 0 0 .124.134 13.824 13.824 0 0 0 3.214 1.687c-.115 1.286-.236 2.732-.236 4.206 0 1.474.121 2.919.354 4.326-1.3.313-2.405.902-3.413 1.623.01 0-.02.033-.046.067A11.556 11.556 0 0 1 6.186 18c0-2.226.622-4.306 1.7-6.078l-.027.054zm.92 13.39a.758.758 0 0 0 .156-.078 11.99 11.99 0 0 1 2.623-1.404c.53 1.962 1.326 3.715 2.41 5.25-2.113-.828-3.856-2.108-5.172-3.746l-.016-.021zM22.07 29.08a14.426 14.426 0 0 0 2.277-5.128c.992.274 1.832.718 2.608 1.249a.78.78 0 0 0 .314.104 11.862 11.862 0 0 1-5.12 3.748l-.079.027z"/></svg>