<svg width="36" height="36" fill="none" xmlns="http://www.w3.org/2000/svg"><circle cx="18" cy="18" r="18" fill="#F80"/><path fill-rule="evenodd" clip-rule="evenodd" d="M18.019 8.988c2.522.007 4.547 2.07 4.534 4.62-.013 2.492-2.07 4.511-4.589 4.503-2.492-.009-4.537-2.075-4.522-4.572a4.569 4.569 0 0 1 4.577-4.551Zm5.109 10.915c-.558.573-1.23.987-1.975 1.276-.705.274-1.477.411-2.242.503l.08.088c.066.07.11.118.162.171l1.191 1.195c.643.643 1.285 1.286 1.923 1.932.353.357.426.799.232 1.213-.211.453-.686.75-1.152.719-.296-.02-.526-.167-.73-.373-.254-.256-.51-.51-.766-.764a86.863 86.863 0 0 1-1.582-1.6c-.224-.235-.331-.19-.529.013-.787.811-1.588 1.61-2.393 2.404-.362.357-.792.421-1.212.217-.446-.216-.73-.671-.708-1.13.015-.308.168-.545.38-.756.88-.88 1.76-1.76 2.637-2.642l.439-.44c.044-.043.085-.089.136-.144l.094-.102c-1.397-.146-2.657-.49-3.736-1.333l-.077-.06c-.109-.084-.218-.169-.317-.264-.473-.453-.52-.973-.147-1.508.32-.458.857-.58 1.414-.317.108.05.211.115.31.183 2.01 1.38 4.771 1.419 6.79.061.2-.152.413-.278.66-.341.482-.124.931.053 1.19.474.295.482.291.951-.072 1.325Zm-7.251-6.226a2.123 2.123 0 1 1 4.246 0 2.123 2.123 0 0 1-4.246 0Z" fill="#FEFEFE"/></svg>