<svg xmlns="http://www.w3.org/2000/svg" width="36" height="36"><g fill="none" fill-rule="evenodd"><path d="M0 0h36v36H0z"/><path fill="#3FCBFF" d="m18.006 3 .546.003c2.853.032 5.105.308 7.087.818a.966.966 0 0 1 .733.928c0 1.779.842 2.883 2.667 3.482l.274.085A.962.962 0 0 1 30 9.23v6.489c0 4.457-.725 7.248-2.606 9.822-1.8 2.465-5.108 4.848-8.618 6.234l-.416.159c-.228.087-.48.088-.71.004-3.65-1.348-7.165-3.825-9.044-6.397C6.726 22.967 6 20.176 6 15.72V9.23c0-.423.286-.797.704-.918C8.714 7.728 9.628 6.6 9.628 4.75c0-.435.301-.816.733-.928C12.468 3.278 14.886 3 18.006 3zm-.008 1.917-.579.005c-2.287.027-4.142.22-5.762.567l-.101.023-.044.324c-.316 1.875-1.479 3.242-3.41 4.025l-.131.05v5.808c0 3.939.58 6.32 2.066 8.464l.175.247c1.64 2.244 4.834 4.495 8.137 5.714L18 30.009l.478-.193c2.87-1.214 5.556-3.15 7.097-5.106l.213-.28c1.615-2.21 2.241-4.621 2.241-8.711V9.91l-.148-.057c-2.015-.821-3.188-2.284-3.432-4.292l-.005-.05-.56-.116c-1.383-.264-2.938-.42-4.782-.465l-.567-.01-.537-.004zm4.793 9.604c.376.361.41.931.102 1.331l-.093.105-5.153 5.078c-.371.365-.956.4-1.367.1l-.107-.09-2.962-2.83a.997.997 0 0 1-.013-1.437c.37-.367.956-.402 1.368-.103l.107.09 2.22 2.12 4.423-4.356a1.063 1.063 0 0 1 1.475-.008z"/></g></svg>