<svg width="114" height="118" fill="none" xmlns="http://www.w3.org/2000/svg"><path d="M94.878 46.168c10.708-2.872 18.971-11.229 18.971-22.528 0-12.623-10.233-22.856-22.857-22.856-6.572 0-12.313 3.232-16.666 7.215-.694.555-1.368 1.072-1.993 1.55l-.012.011c-.626.48-1.202.922-1.701 1.328-.355.288-.74.597-1.15.927-7.142 5.743-22.442 18.046-35.441 44.168-2.987 6.354-4.819 11.53-6.32 15.77-2.55 7.2-4.143 11.702-8.811 14.69-2.34.89-8.189 3.66-12.857 7.615C1.626 97.8.756 102.141.424 103.8l-.052.258c2.175-1.978 9.652-7.534 20.246-4.238 9.432 4.53 9.778 11.775 10.003 16.49.015.308.029.606.045.89 2.242-1.582 6.21-7.021 4.154-16.119-2.572-11.373-.99-13.55 3.362-18.593 4.351-5.043 20.035-21.468 46.826-32.452a333.976 333.976 0 0 1 9.87-3.867Z" fill="#008EC2"/></svg>