<svg width="114" height="118" fill="none" xmlns="http://www.w3.org/2000/svg"><path d="M94.598 46.168c10.708-2.872 18.971-11.229 18.971-22.528 0-12.623-10.234-22.856-22.857-22.856-6.572 0-12.313 3.232-16.666 7.215-.695.555-1.368 1.072-1.993 1.55l-.013.011c-.625.48-1.201.922-1.7 1.328l-1.15.927c-7.142 5.743-22.443 18.046-35.442 44.168-2.986 6.354-4.818 11.53-6.32 15.77-2.549 7.2-4.142 11.702-8.81 14.69-2.341.89-8.19 3.66-12.857 7.615C1.346 97.8.476 102.141.144 103.8l-.053.258c2.176-1.978 9.653-7.534 20.247-4.238 9.432 4.53 9.778 11.775 10.003 16.49.014.308.029.606.045.89 2.241-1.582 6.21-7.021 4.153-16.119-2.57-11.373-.989-13.55 3.363-18.593 4.351-5.043 20.035-21.468 46.826-32.452a334.085 334.085 0 0 1 9.87-3.867Z" fill="#80DCFF"/></svg>