<svg width="54" height="54" fill="none" xmlns="http://www.w3.org/2000/svg"><g id="size=36, state=on"><circle id="Oval" cx="27" cy="27" r="27" fill="url('#paint0_linear_19079_188324')"/><path id="Path" fill-rule="evenodd" clip-rule="evenodd" d="M10.109 27.36c3.156-1.746 6.68-3.202 9.972-4.666 5.663-2.398 11.349-4.755 17.092-6.948 1.118-.374 3.125-.74 3.322.923-.107 2.353-.55 4.692-.855 7.031-.772 5.144-1.665 10.271-2.535 15.398-.3 1.708-2.43 2.592-3.794 1.5-3.278-2.223-6.58-4.423-9.816-6.697-1.06-1.081-.077-2.634.87-3.406 2.699-2.67 5.562-4.939 8.12-7.747.69-1.673-1.35-.263-2.022.169-3.695 2.556-7.3 5.268-11.196 7.515-1.99 1.1-4.31.16-6.299-.454-1.784-.741-4.397-1.488-2.86-2.618Z" fill="#fff"/></g><defs><linearGradient id="paint0_linear_19079_188324" x1="20.253" y1="2.252" x2="6.753" y2="33.75" gradientUnits="userSpaceOnUse"><stop stop-color="#4FA9E5"/><stop offset="1" stop-color="#499FD6"/></linearGradient></defs></svg>