<svg width="43" height="43" viewBox="0 0 43 43" fill="none" xmlns="http://www.w3.org/2000/svg"><path d="M21.5 4.031a1.008 1.008 0 1 0 0 2.016c8.535 0 15.453 6.919 15.453 15.453 0 .072.008.142.022.21-.006.29-.02.578-.043.866a1.008 1.008 0 1 0 2.01.158c.035-.454.053-.908.053-1.363 0-.083-.01-.165-.03-.243-.198-9.476-7.942-17.097-17.465-17.097ZM12.8 13.174a1.008 1.008 0 1 0 1.995.295l.995-6.716a1.008 1.008 0 0 0-.85-1.144l-6.716-.996a1.008 1.008 0 0 0-.295 1.994l5.72.848-.848 5.719ZM11.66 33.046a15.582 15.582 0 0 1-1.706-1.706 1.008 1.008 0 1 0-1.532 1.31 17.604 17.604 0 0 0 1.928 1.928 1.008 1.008 0 1 0 1.31-1.532ZM14.658 35.053a1.008 1.008 0 0 0-.915 1.796c.816.416 1.659.764 2.519 1.042a1.008 1.008 0 1 0 .621-1.917 15.26 15.26 0 0 1-2.225-.92ZM6.151 29.257a1.008 1.008 0 1 0 1.796-.915 15.248 15.248 0 0 1-.92-2.225 1.008 1.008 0 1 0-1.918.621c.278.86.626 1.703 1.042 2.52ZM20.424 36.675a1.008 1.008 0 0 0-.158 2.01c.907.07 1.818.07 2.725 0a1.008 1.008 0 0 0-.158-2.01c-.801.063-1.607.063-2.41 0ZM4.316 22.734a1.008 1.008 0 1 0 2.01-.158 15.451 15.451 0 0 1 0-2.41 1.008 1.008 0 1 0-2.01-.157c-.071.907-.071 1.818 0 2.725ZM26.374 35.974a1.008 1.008 0 0 0 .621 1.917c.86-.278 1.703-.626 2.52-1.042a1.008 1.008 0 0 0-.916-1.796c-.721.368-1.465.675-2.225.92ZM5.109 16.005a1.008 1.008 0 0 0 1.917.621c.246-.76.553-1.504.921-2.225a1.008 1.008 0 1 0-1.796-.915c-.416.816-.764 1.659-1.042 2.519Z" fill="#69C9FA"/><path d="M8.422 10.093a1.008 1.008 0 0 0 1.532 1.31c.26-.303.533-.598.82-.886A1.008 1.008 0 1 0 9.35 9.092a17.6 17.6 0 0 0-.927 1ZM31.597 33.046a1.008 1.008 0 1 0 1.31 1.532 17.636 17.636 0 0 0 1.927-1.927 1.008 1.008 0 0 0-1.532-1.31 15.597 15.597 0 0 1-1.705 1.705ZM35.31 28.342a1.008 1.008 0 1 0 1.796.916c.416-.817.763-1.66 1.042-2.52a1.008 1.008 0 1 0-1.918-.62c-.246.759-.552 1.503-.92 2.224Z" fill="#69C9FA"/><path fill-rule="evenodd" clip-rule="evenodd" d="M22.508 17.944a3.703 3.703 0 0 1 2.548 2.548h7.194a1.008 1.008 0 1 1 0 2.016h-7.194a3.697 3.697 0 0 1-7.251-1.008 3.697 3.697 0 0 1 2.687-3.556V9.406a1.008 1.008 0 1 1 2.016 0v8.538ZM21.5 19.82a1.68 1.68 0 1 0 0 3.36 1.68 1.68 0 0 0 0-3.36Z" fill="#69C9FA"/></svg>
