<svg width="36" height="36" viewBox="0 0 36 36" fill="none" xmlns="http://www.w3.org/2000/svg">
<circle cx="18" cy="18" r="18" fill="#FF8800"/>
<path fill-rule="evenodd" clip-rule="evenodd" d="M18.0186 8.98799C20.5411 8.99488 22.5658 11.0582 22.5528 13.6085C22.5401 16.1001 20.4823 18.1194 17.964 18.1109C15.4715 18.1024 13.4272 16.0359 13.4421 13.5394C13.4561 11.0155 15.5014 8.9811 18.0186 8.98799ZM23.1276 19.9032C22.5699 20.4758 21.8984 20.8902 21.1528 21.1793C20.448 21.4525 19.6756 21.59 18.9109 21.6817L18.9918 21.7698C19.0569 21.8409 19.1002 21.8882 19.1531 21.9411C19.5497 22.3398 19.947 22.7378 20.3444 23.1357L20.3448 23.1361C20.9868 23.7791 21.6288 24.4221 22.2675 25.0683C22.62 25.4249 22.6934 25.8669 22.4994 26.281C22.2877 26.7341 21.8126 27.0319 21.3465 26.9999C21.0513 26.9795 20.8211 26.833 20.6168 26.6271C20.3627 26.3714 20.107 26.1173 19.8514 25.8631C19.319 25.3339 18.7867 24.8046 18.2686 24.2622C18.0447 24.0285 17.9377 24.073 17.7403 24.276C16.9525 25.0873 16.1518 25.8857 15.3465 26.6798C14.9848 27.0365 14.5545 27.1011 14.1348 26.8971C13.6889 26.6814 13.4053 26.2259 13.4271 25.7678C13.4424 25.4588 13.5945 25.2219 13.807 25.0105C14.6878 24.1316 15.5662 23.2503 16.4444 22.3693L16.8828 21.9294C16.9266 21.8856 16.9683 21.8401 17.0188 21.785C17.0468 21.7544 17.0775 21.7208 17.1128 21.683C15.7156 21.537 14.4557 21.1931 13.377 20.3497C13.3515 20.3297 13.3259 20.3099 13.3003 20.2901L13.3003 20.2901C13.1911 20.2057 13.0817 20.1212 12.983 20.0259C12.5105 19.5725 12.4631 19.0529 12.8365 18.5182C13.1563 18.0603 13.6926 17.9379 14.2503 18.201C14.3584 18.2516 14.4613 18.3157 14.5598 18.3836C16.5699 19.7649 19.3314 19.8028 21.3494 18.4453C21.5492 18.2927 21.763 18.1671 22.0108 18.1038C22.492 17.9798 22.9414 18.157 23.1994 18.5783C23.4949 19.0598 23.4914 19.5293 23.1276 19.9032ZM15.8769 13.6768C15.8769 12.5042 16.8274 11.5536 18 11.5536C19.1726 11.5536 20.1231 12.5042 20.1231 13.6768C20.1231 14.8493 19.1726 15.7999 18 15.7999C16.8274 15.7999 15.8769 14.8493 15.8769 13.6768Z" fill="#FEFEFE"/>
</svg>
