<svg width="54" height="54" viewBox="0 0 54 54" fill="none" xmlns="http://www.w3.org/2000/svg">
<g id="size=36, state=on">
<circle id="Oval" cx="27" cy="27" r="27" fill="url(#paint0_linear_19079_188324)"/>
<path id="Path" fill-rule="evenodd" clip-rule="evenodd" d="M10.1089 27.3596C13.2652 25.6144 16.7885 24.1578 20.0805 22.6937C25.7439 20.2958 31.4299 17.9393 37.1733 15.7455C38.2906 15.3717 40.2985 15.0063 40.4954 16.6686C40.3876 19.0217 39.9441 21.3609 39.6399 23.7002C38.868 28.8444 37.9754 33.9711 37.1053 39.0984C36.8054 40.8062 34.6742 41.6904 33.3105 40.5975C30.0331 38.3752 26.7306 36.1746 23.4951 33.9008C22.4351 32.8196 23.4181 31.2673 24.3645 30.4953C27.0638 27.8247 29.9265 25.5561 32.4847 22.7477C33.1748 21.0748 31.1358 22.4846 30.4633 22.9167C26.7679 25.473 23.163 28.1854 19.2669 30.432C17.2767 31.5318 14.9572 30.5919 12.968 29.9783C11.1844 29.237 8.57081 28.4901 10.1087 27.3598L10.1089 27.3596Z" fill="white"/>
</g>
<defs>
<linearGradient id="paint0_linear_19079_188324" x1="20.2531" y1="2.2518" x2="6.75315" y2="33.75" gradientUnits="userSpaceOnUse">
<stop stop-color="#4FA9E5"/>
<stop offset="1" stop-color="#499FD6"/>
</linearGradient>
</defs>
</svg>
