<svg width="153" height="77" viewBox="0 0 153 77" fill="none" xmlns="http://www.w3.org/2000/svg">
<path d="M144.165 29.2496C151.304 31.5132 152.398 33.4365 152.221 35.8805C151.823 41.3768 143.503 43.0349 133.542 43.4312C130.877 43.5372 127.991 43.652 124.922 43.9045C112.241 44.9479 111.882 46.9014 110.165 56.2385C109.913 57.6053 109.633 59.1308 109.28 60.8344C107.389 69.9748 100.088 74.4182 95.194 76.0086C94.3628 76.2787 93.6973 75.3478 94.0271 74.5384C96.0944 69.4639 95.4486 62.0883 88.481 58.2959C77.4056 55.4817 57.1784 59.5241 35.4394 66.9754C30.744 68.5847 28.7565 69.4973 24.9922 69.4973C12.3688 69.4973 2.13553 59.264 2.13553 46.6406C2.13553 39.5394 4.86512 34.2364 9.40196 30.0482C10.6661 28.8811 12.0066 27.7767 13.0185 26.3852C15.6769 22.7293 17.1711 18.0579 14.6277 12.5941C11.4472 5.76207 5.07851 4.13752 2.08427 3.37374C0.10039 2.86768 -0.40212 2.7395 2.48558 1.7249C9.73166 -0.821018 27.2593 -0.625196 36.268 6.42504C42.8373 11.5663 50.4958 9.11847 54.625 7.79871C55.0257 7.67066 55.3934 7.55313 55.7234 7.45429C90.6116 -2.99682 111.514 2.68985 123.777 9.07992C132.227 12.678 134.819 17.6503 137.002 21.8377C138.737 25.1651 140.213 27.9968 144.165 29.2496Z" fill="#008EC2"/>
<circle cx="129.973" cy="26.095" r="2.13126" transform="rotate(10.6719 129.973 26.095)" fill="#144F91"/>
</svg>
