<svg width="152" height="77" viewBox="0 0 152 77" fill="none" xmlns="http://www.w3.org/2000/svg">
<path d="M143.885 29.2496C151.024 31.5132 152.117 33.4365 151.941 35.8805C151.543 41.3768 143.223 43.0349 133.262 43.4312C130.597 43.5372 127.711 43.652 124.642 43.9045C111.961 44.9479 111.602 46.9014 109.885 56.2385C109.633 57.6053 109.353 59.1308 109 60.8344C107.109 69.9748 99.8083 74.4182 94.9139 76.0086C94.0826 76.2787 93.4172 75.3478 93.7469 74.5384C95.8142 69.4639 95.1685 62.0883 88.2009 58.2959C77.1254 55.4817 56.8982 59.5241 35.1592 66.9754C30.4639 68.5847 28.4763 69.4973 24.7121 69.4973C12.0887 69.4973 1.85538 59.264 1.85538 46.6406C1.85538 39.5394 4.58497 34.2364 9.12181 30.0482C10.386 28.8811 11.7265 27.7767 12.7383 26.3852C15.3968 22.7293 16.891 18.0579 14.3475 12.5941C11.1671 5.76207 4.79836 4.13752 1.80412 3.37374C-0.179761 2.86768 -0.682272 2.7395 2.20543 1.7249C9.45151 -0.821018 26.9792 -0.625196 35.9878 6.42504C42.5571 11.5663 50.2157 9.11847 54.3449 7.79871C54.7455 7.67066 55.1133 7.55313 55.4432 7.45429C90.3315 -2.99682 111.234 2.68985 123.497 9.07992C131.947 12.678 134.539 17.6503 136.722 21.8377C138.457 25.1651 139.933 27.9968 143.885 29.2496Z" fill="#80DCFF"/>
<circle cx="129.693" cy="26.095" r="2.13126" transform="rotate(10.6719 129.693 26.095)" fill="#144F91"/>
</svg>
