<svg width="114" height="118" viewBox="0 0 114 118" fill="none" xmlns="http://www.w3.org/2000/svg">
<path d="M94.8782 46.168C105.586 43.2958 113.849 34.939 113.849 23.6401C113.849 11.0171 103.616 0.783691 90.9923 0.783691C84.42 0.783691 78.679 4.01562 74.3261 7.99854C73.6318 8.5542 72.9582 9.0708 72.333 9.5498L72.3206 9.56006C71.6955 10.0396 71.1191 10.4819 70.6195 10.8877C70.2646 11.1758 69.8807 11.4849 69.4698 11.8149C62.3284 17.5576 47.0275 29.8608 34.0285 55.9834C31.0424 62.3369 29.2102 67.5127 27.7092 71.7524C25.1598 78.9536 23.5662 83.4551 18.8977 86.4429C16.5572 87.333 10.7092 90.1021 6.04139 94.0581C1.62592 97.7998 0.756111 102.141 0.423843 103.799L0.371582 104.057C2.54726 102.079 10.0239 96.5229 20.6179 99.8188C30.0502 104.349 30.396 111.594 30.6211 116.309C30.6358 116.617 30.6499 116.915 30.6661 117.199C32.9077 115.617 36.8767 110.178 34.8197 101.08C32.2484 89.7065 33.8307 87.5308 38.1821 82.4873C42.5335 77.4438 58.2174 61.019 85.0083 50.0347C88.2951 48.687 91.5933 47.3945 94.8782 46.168Z" fill="#008EC2"/>
</svg>
