<svg width="114" height="118" viewBox="0 0 114 118" fill="none" xmlns="http://www.w3.org/2000/svg">
<path d="M94.5979 46.168C105.306 43.2958 113.569 34.939 113.569 23.6401C113.569 11.0171 103.335 0.783691 90.712 0.783691C84.1398 0.783691 78.3987 4.01562 74.0458 7.99854C73.3515 8.5542 72.6779 9.0708 72.0528 9.5498L72.0403 9.56006C71.4152 10.0396 70.8388 10.4819 70.3392 10.8877C69.9843 11.1758 69.6004 11.4849 69.1896 11.8149C62.0481 17.5576 46.7473 29.8608 33.7483 55.9834C30.7622 62.3369 28.9299 67.5127 27.4289 71.7524C24.8795 78.9536 23.2859 83.4551 18.6174 86.4429C16.2769 87.333 10.4289 90.1021 5.76112 94.0581C1.34565 97.7998 0.475838 102.141 0.14357 103.799L0.0913086 104.057C2.26699 102.079 9.74364 96.5229 20.3377 99.8188C29.7699 104.349 30.1157 111.594 30.3408 116.309C30.3555 116.617 30.3697 116.915 30.3858 117.199C32.6275 115.617 36.5964 110.178 34.5394 101.08C31.9682 89.7065 33.5505 87.5308 37.9018 82.4873C42.2532 77.4438 57.9372 61.019 84.728 50.0347C88.0148 48.687 91.3131 47.3945 94.5979 46.168Z" fill="#80DCFF"/>
</svg>
